<?xml version="1.0" encoding="utf-8"?>
<!-- Generator: Adobe Illustrator 24.3.0, SVG Export Plug-In . SVG Version: 6.00 Build 0)  -->
<svg style="background:#75D939;" version="1.1" xmlns="http://www.w3.org/2000/svg"
	xmlns:xlink="http://www.w3.org/1999/xlink" x="0px" y="0px" viewBox="0 0 1920 1080"
	enable-background="new 0 0 1920 1080" xml:space="preserve">
	<style>
        text {
            font-family: sans-serif,Roboto;
        }
    </style>
	<g>
		<svg version="1.1" id="Layer_1" xmlns="http://www.w3.org/2000/svg" xmlns:xlink="http://www.w3.org/1999/xlink"
			x="1650px" y="40px" width="200px" height="200px" viewBox="0 0 720 720" enable-background="new 0 0 720 720"
			xml:space="preserve">
			<rect x="9.661" y="9.918" fill="#80C26C" width="350.21" height="350.214" />
			<rect x="359.871" y="9.918" fill="#83C2BA" width="350.208" height="350.214" />
			<rect x="9.661" y="360.132" fill="#3F9A8E" width="350.21" height="350.21" />
			<rect x="359.871" y="360.132" fill="#3FAA6D" width="350.208" height="350.21" />
			<g>
				<defs>
					<rect id="SVGID_1_" width="720" height="720" />
				</defs>
				<clipPath id="SVGID_2_">
					<use xlink:href="#SVGID_1_" overflow="visible" />
				</clipPath>
				<g clip-path="url(#SVGID_2_)" enable-background="new    ">
					<g>
						<defs>
							<rect id="SVGID_3_" x="457.746" y="78.719" width="154.979" height="281.396" />
						</defs>
						<clipPath id="SVGID_4_">
							<use xlink:href="#SVGID_3_" overflow="visible" />
						</clipPath>
						<g clip-path="url(#SVGID_4_)">
							<path fill="#F2F3F3" d="M594.562,226.452c-3.013,7.35-7.317,13.65-12.915,18.9c-5.602,5.25-12.357,9.345-20.266,12.285
					c-7.911,2.94-16.694,4.41-26.354,4.41c-9.802,0-18.621-1.47-26.46-4.41c-7.843-2.94-14.49-7.035-19.95-12.285
					s-9.66-11.55-12.601-18.9c-2.939-7.35-4.409-15.504-4.409-24.465v-92.61h35.699v89.67c0,4.062,0.525,7.911,1.575,11.55
					c1.05,3.642,2.658,6.897,4.83,9.765c2.169,2.871,5.04,5.145,8.61,6.825c3.569,1.68,7.875,2.52,12.915,2.52
					s9.345-0.84,12.915-2.52c3.569-1.68,6.474-3.954,8.715-6.825c2.237-2.868,3.849-6.123,4.83-9.765
					c0.978-3.639,1.47-7.488,1.47-11.55v-89.67h35.91v92.61C599.076,210.948,597.57,219.102,594.562,226.452z" />
						</g>
					</g>
				</g>
				<g clip-path="url(#SVGID_2_)" enable-background="new    ">
					<g>
						<defs>
							<rect id="SVGID_5_" x="122.864" y="422.599" width="124.108" height="281.397" />
						</defs>
						<clipPath id="SVGID_6_">
							<use xlink:href="#SVGID_5_" overflow="visible" />
						</clipPath>
						<g clip-path="url(#SVGID_6_)">
							<path fill="#F2F3F3" d="M216.734,491.897c-3.081-3.918-7.107-7.035-12.075-9.345c-4.971-2.311-9.765-3.465-14.385-3.465
					c-2.382,0-4.797,0.21-7.245,0.63c-2.451,0.42-4.656,1.227-6.615,2.415c-1.962,1.19-3.606,2.729-4.935,4.62
					c-1.333,1.89-1.995,4.305-1.995,7.244c0,2.521,0.525,4.62,1.575,6.301c1.05,1.68,2.589,3.149,4.62,4.409
					c2.028,1.261,4.443,2.415,7.245,3.466c2.799,1.05,5.949,2.136,9.45,3.255c5.04,1.68,10.29,3.537,15.75,5.564
					c5.46,2.031,10.428,4.726,14.91,8.085c4.479,3.36,8.19,7.527,11.13,12.495c2.94,4.972,4.41,11.166,4.41,18.585
					c0,8.541-1.575,15.928-4.725,22.155c-3.15,6.231-7.386,11.376-12.705,15.435c-5.322,4.062-11.412,7.071-18.27,9.03
					c-6.861,1.959-13.932,2.94-21.21,2.94c-10.641,0-20.931-1.857-30.87-5.565c-9.942-3.708-18.201-8.994-24.78-15.854l23.52-23.94
					c3.639,4.482,8.433,8.227,14.385,11.235c5.949,3.012,11.865,4.515,17.745,4.515c2.658,0,5.25-0.279,7.77-0.84
					c2.52-0.558,4.725-1.47,6.615-2.73c1.89-1.26,3.393-2.939,4.515-5.04c1.119-2.1,1.68-4.619,1.68-7.56
					c0-2.799-0.702-5.178-2.1-7.14c-1.401-1.959-3.396-3.744-5.985-5.355c-2.592-1.607-5.811-3.078-9.66-4.41
					c-3.852-1.329-8.226-2.763-13.125-4.305c-4.761-1.539-9.417-3.36-13.965-5.46c-4.551-2.1-8.61-4.794-12.18-8.085
					c-3.57-3.288-6.441-7.278-8.61-11.97c-2.172-4.689-3.255-10.396-3.255-17.115c0-8.259,1.68-15.33,5.04-21.21
					s7.77-10.71,13.23-14.49s11.619-6.543,18.48-8.295c6.858-1.749,13.788-2.625,20.79-2.625c8.4,0,16.974,1.542,25.725,4.62
					c8.748,3.081,16.413,7.632,22.995,13.649L216.734,491.897z" />
						</g>
					</g>
				</g>
				<g clip-path="url(#SVGID_2_)" enable-background="new    ">
					<g>
						<defs>
							<rect id="SVGID_7_" x="453.979" y="422.599" width="162.537" height="281.397" />
						</defs>
						<clipPath id="SVGID_8_">
							<use xlink:href="#SVGID_7_" overflow="visible" />
						</clipPath>
						<g clip-path="url(#SVGID_8_)">
							<path fill="#F2F3F3" d="M608.118,527.178c0,13.02-2.415,24.255-7.245,33.705c-4.829,9.449-11.202,17.22-19.109,23.31
					c-7.911,6.09-16.836,10.572-26.775,13.44c-9.942,2.871-20.021,4.305-30.24,4.305h-55.439v-148.68h53.76
					c10.5,0,20.859,1.227,31.08,3.675c10.218,2.451,19.32,6.51,27.3,12.18c7.98,5.67,14.418,13.267,19.32,22.785
					C605.667,501.42,608.118,513.18,608.118,527.178z M570.738,527.178c0-8.4-1.365-15.363-4.095-20.896
					c-2.73-5.528-6.372-9.938-10.92-13.229c-4.551-3.288-9.732-5.634-15.54-7.035c-5.812-1.397-11.796-2.1-17.955-2.1h-17.85v86.939
					h17.01c6.438,0,12.633-0.735,18.585-2.205c5.949-1.47,11.199-3.885,15.75-7.245c4.548-3.359,8.189-7.839,10.92-13.439
					C569.373,542.37,570.738,535.439,570.738,527.178z" />
						</g>
					</g>
				</g>
			</g>
			<g>
				<path fill="#F2F3F3" d="M189.651,262.85c-43.262,0-75.393-33.391-75.393-75.603v-0.42c0-41.791,31.501-76.022,76.652-76.022
		c27.721,0,44.312,9.24,57.962,22.681l-20.581,23.731c-11.34-10.291-22.891-16.59-37.591-16.59
		c-24.781,0-42.631,20.581-42.631,45.781v0.42c0,25.201,17.431,46.202,42.631,46.202c16.801,0,27.091-6.72,38.641-17.221
		l20.581,20.791C234.802,252.77,218.001,262.85,189.651,262.85z" />
			</g>
			<rect fill="#F2F3F3" width="719.555" height="21.377" />
			<rect y="699.019" fill="#F2F3F3" width="719.556" height="20.981" />
			<rect x="698.822" fill="#F2F3F3" width="21.178" height="719.622" />
			<rect fill="#F2F3F3" width="21.18" height="719.622" />
			<rect y="348.753" fill="#F2F3F3" width="719.555" height="21.624" />
			<rect x="346.822" fill="#F2F3F3" width="21.625" height="719.622" />
		</svg>
	</g>
	<!-- <g id="Layer_2">
	<g>
		<rect x="0.5" y="0.5" fill="#75D939" width="1931" height="1079"/>
		<g>
			<path d="M1931,1v1078H1V1H1931 M1932,0H0v1080h1932V0L1932,0z"/>
		</g>
	</g>
</g> -->
	<g id="Layer_1">
		<rect x="98.64" y="78.04" fill="none" width="1246.36" height="80.26" />
		<text transform="matrix(1 0 0 1 98.6426 128.4404)" fill="#FFFFFF" font-family="'PTSans-Bold'"
			font-size="72px">Today, this solar-powered shelter has: </text>
		<g>
			<path fill="none" stroke="#FFFFFF" stroke-width="12" stroke-miterlimit="10" d="M162.27,272h73.12c3.15,0,5.01,3.55,3.21,6.14
			l-46.35,66.73c-1.8,2.59,0.05,6.14,3.21,6.14h36.92c3.62,0,5.29,4.49,2.56,6.86l-116.5,100.9c-3.29,2.85-8.08-1.01-5.98-4.83
			l37.37-68.14c1.43-2.6-0.46-5.78-3.42-5.79l-41.05-0.02c-3,0-4.88-3.23-3.4-5.84l56.92-100.17
			C159.57,272.75,160.87,272,162.27,272z" />
		</g>
		<polygon fill="#FFFFFF" points="200,824 190,923 257.75,923 249.18,824 	" />
		<circle fill="#FFFFFF" cx="201" cy="805" r="6" />
		<circle fill="#FFFFFF" cx="223" cy="805" r="6" />
		<circle fill="#FFFFFF" cx="248" cy="805" r="6" />
		<circle fill="#FFFFFF" cx="236" cy="784" r="6" />
		<circle fill="#FFFFFF" cx="260" cy="784" r="6" />
		<circle fill="#FFFFFF" cx="211" cy="784" r="6" />
		<circle fill="#FFFFFF" cx="187" cy="784" r="6" />
		<circle fill="#FFFFFF" cx="201" cy="763" r="6" />
		<circle fill="#FFFFFF" cx="223" cy="763" r="6" />
		<circle fill="#FFFFFF" cx="248" cy="763" r="6" />
		<circle fill="#FFFFFF" cx="260" cy="745" r="6" />
		<circle fill="#FFFFFF" cx="236" cy="742" r="6" />
		<circle fill="#FFFFFF" cx="223" cy="721" r="6" />
		<circle fill="#FFFFFF" cx="201" cy="721" r="6" />
		<circle fill="#FFFFFF" cx="211" cy="742" r="6" />
		<circle fill="#FFFFFF" cx="187" cy="742" r="6" />
		<circle fill="#FFFFFF" cx="175" cy="762" r="6" />
		<circle fill="#FFFFFF" cx="165" cy="824" r="6" />
		<circle fill="#FFFFFF" cx="141" cy="827" r="6" />
		<circle fill="#FFFFFF" cx="108" cy="847" r="6" />
		<circle fill="#FFFFFF" cx="83" cy="847" r="6" />
		<circle fill="#FFFFFF" cx="117" cy="827" r="6" />
		<circle fill="#FFFFFF" cx="95" cy="824" r="6" />
		<circle fill="#FFFFFF" cx="72" cy="824" r="6" />
		<circle fill="#FFFFFF" cx="153" cy="805" r="6" />
		<circle fill="#FFFFFF" cx="129" cy="805" r="6" />
		<circle fill="#FFFFFF" cx="105" cy="805" r="6" />
		<circle fill="#FFFFFF" cx="83" cy="805" r="6" />
		<circle fill="#FFFFFF" cx="72" cy="784" r="6" />
		<circle fill="#FFFFFF" cx="95" cy="784" r="6" />
		<circle fill="#FFFFFF" cx="144" cy="784" r="6" />
		<circle fill="#FFFFFF" cx="165" cy="784" r="6" />
		<circle fill="#FFFFFF" cx="165" cy="702" r="6" />
		<circle fill="#FFFFFF" cx="141" cy="702" r="6" />
		<circle fill="#FFFFFF" cx="177" cy="721" r="6" />
		<circle fill="#FFFFFF" cx="153" cy="722" r="6" />
		<circle fill="#FFFFFF" cx="129" cy="723" r="6" />
		<circle fill="#FFFFFF" cx="83" cy="722" r="6" />
		<circle fill="#FFFFFF" cx="72" cy="744" r="6" />
		<circle fill="#FFFFFF" cx="95" cy="744" r="6" />
		<circle fill="#FFFFFF" cx="117" cy="744" r="6" />
		<circle fill="#FFFFFF" cx="141" cy="743" r="6" />
		<circle fill="#FFFFFF" cx="165" cy="743" r="6" />
		<circle fill="#FFFFFF" cx="83" cy="764" r="6" />
		<circle fill="#FFFFFF" cx="108" cy="764" r="6" />
		<circle fill="#FFFFFF" cx="129" cy="764" r="6" />
		<circle fill="#FFFFFF" cx="152" cy="764" r="6" />
		<circle fill="none" stroke="#FFFFFF" stroke-width="5" stroke-miterlimit="10" cx="1112" cy="440" r="13" />
		<circle fill="none" stroke="#FFFFFF" stroke-width="5" stroke-miterlimit="10" cx="1190" cy="440" r="13" />
		<line fill="#FFFFFF" stroke="#FFFFFF" stroke-width="5" stroke-miterlimit="10" x1="1125" y1="440" x2="1177"
			y2="440" />
		<g>
			<path fill="none" stroke="#FFFFFF" stroke-width="6" stroke-miterlimit="10" d="M1099,440h-16.2c-3.59,0-5.75-3.98-3.79-6.99
			l13-19.96c1.24-1.9,3.36-3.05,5.63-3.05h25.05h92.02c1.81,0,3.95,1.23,4.29,3l2,13c0.2,1.04,0.65,1.28,1.59,1.76l2.09,1.06
			c1.42,0.72,2.31,2.18,2.31,3.77v1.89c0,3.05-2.47,5.51-5.51,5.51H1203" />
		</g>
		<g>
			<path fill="none" stroke="#FFFFFF" stroke-width="6" stroke-miterlimit="10" d="M1215,410l-9.3-21.67
			c-0.33-0.78-0.72-1.54-1.22-2.22c-1.06-1.44-2.45-2.62-4.07-3.42c-2.78-1.37-8.31-1.69-9.42-1.69h-45.88
			c-3.27,0-6.33,1.6-8.21,4.28l-17,24.35" />
		</g>
		<line fill="none" stroke="#FFFFFF" stroke-width="6" stroke-miterlimit="10" x1="1160" y1="383" x2="1160"
			y2="410" />
		<path fill="none" stroke="#FFFFFF" stroke-width="6" stroke-miterlimit="10" d="M1235,432c0.94,2.02,2.73,4.98,6,7
		c8.3,5.11,21.18,1.05,25-6c2.65-4.9-0.22-9.15,3-12c3.1-2.75,6.9,0.17,12-1c10.43-2.39,17.32-19.81,16-34
		c-0.44-4.77-1.04-11.24-6-15c-7.5-5.68-21.42-2.45-26,5c-4.98,8.1,2.19,19.36-2,22c-3.4,2.15-8.53-5.02-14-3
		c-5.77,2.13-9.99,13.75-5,20c2.46,3.08,6.32,3.8,8,4" />
		<rect x="284.43" y="321.49" fill="none" width="307.57" height="111.05" />
		<text transform="matrix(1 0 0 1 284.4316 406.0415)" fill="#FFFFFF" font-family="'SFProDisplay-Bold'"
			font-size="120px">2345</text>
		<rect x="329.32" y="767.63" fill="none" width="307.57" height="111.05" />
		<text transform="matrix(1 0 0 1 329.3167 852.1818)" fill="#FFFFFF" font-family="'SFProDisplay-Bold'"
			font-size="120px">200</text>
		<rect x="848.32" y="328.63" fill="none" width="307.57" height="126.37" />
		<text transform="matrix(1 0 0 1 848.3167 441.3658)" fill="#FFFFFF" font-family="'SFProDisplay-Bold'"
			font-size="160px">35</text>
		<rect x="289.65" y="265.42" fill="none" width="420.35" height="55.58" />
		<text transform="matrix(1 0 0 1 289.6484 293.6045)" fill="#FFFFFF" font-family="'SFProDisplay-Bold'"
			font-size="40px">GENERATED</text>
		<rect x="289.32" y="434.85" fill="none" width="321.68" height="55.58" />
		<text transform="matrix(1 0 0 1 289.3192 463.0357)" fill="#FFFFFF" font-family="'SFProDisplay-Bold'"
			font-size="40px">KW OF ENERGY</text>
		<rect x="329.32" y="714.85" fill="none" width="420.35" height="55.58" />
		<text transform="matrix(1 0 0 1 329.3192 743.0357)" fill="#FFFFFF" font-family="'SFProDisplay-Bold'"
			font-size="40px">SAVED</text>
		<rect x="329.32" y="884.85" fill="none" width="420.35" height="55.58" />
		<text transform="matrix(1 0 0 1 329.3192 913.0357)" fill="#FFFFFF" font-family="'SFProDisplay-Bold'"
			font-size="40px">LBS OF CO2</text>
		<rect x="1058.32" y="315.65" fill="none" width="420.35" height="55.58" />
		<text transform="matrix(1 0 0 1 1058.3191 336.7845)" fill="#FFFFFF" font-family="'SFProDisplay-Bold'"
			font-size="30px">CARS FOR 1 HOUR</text>
		<circle fill="none" stroke="#FFFFFF" stroke-width="5" stroke-miterlimit="10" cx="1111" cy="875.48" r="13" />
		<circle fill="none" stroke="#FFFFFF" stroke-width="5" stroke-miterlimit="10" cx="1189" cy="875.48" r="13" />
		<line fill="#FFFFFF" stroke="#FFFFFF" stroke-width="5" stroke-miterlimit="10" x1="1124" y1="875.48" x2="1176"
			y2="875.48" />
		<g>
			<path fill="none" stroke="#FFFFFF" stroke-width="6" stroke-miterlimit="10" d="M1098,875.48h-16.2c-3.59,0-5.75-3.98-3.79-6.99
			l13-19.96c1.24-1.9,3.36-3.05,5.63-3.05h25.05h92.02c1.81,0,3.95,1.23,4.29,3l2,13c0.2,1.04,0.65,1.28,1.59,1.76l2.09,1.06
			c1.42,0.72,2.31,2.18,2.31,3.77v1.89c0,3.05-2.47,5.51-5.51,5.51H1202" />
		</g>
		<g>
			<path fill="none" stroke="#FFFFFF" stroke-width="6" stroke-miterlimit="10" d="M1214,845.48l-9.3-21.67
			c-0.33-0.78-0.72-1.54-1.22-2.22c-1.06-1.44-2.45-2.62-4.07-3.42c-2.78-1.37-8.31-1.69-9.42-1.69h-45.88
			c-3.27,0-6.33,1.6-8.21,4.28l-17,24.35" />
		</g>
		<line fill="none" stroke="#FFFFFF" stroke-width="6" stroke-miterlimit="10" x1="1159" y1="818.48" x2="1159"
			y2="845.48" />
		<path fill="none" stroke="#FFFFFF" stroke-width="6" stroke-miterlimit="10" d="M1234,867.48c0.94,2.02,2.73,4.98,6,7
		c8.3,5.11,21.18,1.05,25-6c2.65-4.9-0.22-9.15,3-12c3.1-2.75,6.9,0.17,12-1c10.43-2.39,17.32-19.81,16-34
		c-0.44-4.77-1.04-11.24-6-15c-7.5-5.68-21.42-2.45-26,5c-4.98,8.1,2.19,19.36-2,22c-3.4,2.15-8.53-5.02-14-3
		c-5.77,2.13-9.99,13.75-5,20c2.46,3.08,6.32,3.8,8,4" />
		<rect x="847.32" y="764.11" fill="none" width="307.57" height="126.37" />
		<text transform="matrix(1 0 0 1 847.318 876.8451)" fill="#FFFFFF" font-family="'SFProDisplay-Bold'"
			font-size="160px">35</text>
		<rect x="1057.32" y="751.13" fill="none" width="420.35" height="55.58" />
		<text transform="matrix(1 0 0 1 1057.3206 772.2638)" fill="#FFFFFF" font-family="'SFProDisplay-Bold'"
			font-size="30px">CARS FOR 1 HOUR</text>
		<circle fill="none" stroke="#FFFFFF" stroke-width="5" stroke-miterlimit="10" cx="1639" cy="442.48" r="13" />
		<circle fill="none" stroke="#FFFFFF" stroke-width="5" stroke-miterlimit="10" cx="1717" cy="442.48" r="13" />
		<line fill="#FFFFFF" stroke="#FFFFFF" stroke-width="5" stroke-miterlimit="10" x1="1652" y1="442.48" x2="1704"
			y2="442.48" />
		<g>
			<path fill="none" stroke="#FFFFFF" stroke-width="6" stroke-miterlimit="10" d="M1626,442.48h-16.2c-3.59,0-5.75-3.98-3.79-6.99
			l13-19.96c1.24-1.9,3.36-3.05,5.63-3.05h25.05h92.02c1.81,0,3.95,1.23,4.29,3l2,13c0.2,1.04,0.65,1.28,1.59,1.76l2.09,1.06
			c1.42,0.72,2.31,2.18,2.31,3.77v1.89c0,3.05-2.47,5.51-5.51,5.51H1730" />
		</g>
		<g>
			<path fill="none" stroke="#FFFFFF" stroke-width="6" stroke-miterlimit="10" d="M1742,412.48l-9.3-21.67
			c-0.33-0.78-0.72-1.54-1.22-2.22c-1.06-1.44-2.45-2.62-4.07-3.42c-2.78-1.37-8.31-1.69-9.42-1.69h-45.88
			c-3.27,0-6.33,1.6-8.21,4.28l-17,24.35" />
		</g>
		<line fill="none" stroke="#FFFFFF" stroke-width="6" stroke-miterlimit="10" x1="1687" y1="385.48" x2="1687"
			y2="412.48" />
		<path fill="none" stroke="#FFFFFF" stroke-width="6" stroke-miterlimit="10" d="M1762,434.48c0.94,2.02,2.73,4.98,6,7
		c8.3,5.11,21.18,1.05,25-6c2.65-4.9-0.22-9.15,3-12c3.1-2.75,6.9,0.17,12-1c10.43-2.39,17.32-19.81,16-34
		c-0.44-4.77-1.04-11.24-6-15c-7.5-5.68-21.42-2.45-26,5c-4.98,8.1,2.19,19.36-2,22c-3.4,2.15-8.53-5.02-14-3
		c-5.77,2.13-9.99,13.75-5,20c2.46,3.08,6.32,3.8,8,4" />
		<rect x="1375.32" y="331.11" fill="none" width="307.57" height="126.37" />
		<text transform="matrix(1 0 0 1 1375.318 443.8451)" fill="#FFFFFF" font-family="'SFProDisplay-Bold'"
			font-size="160px">35</text>
		<rect x="1585.32" y="318.13" fill="none" width="420.35" height="55.58" />
		<text transform="matrix(1 0 0 1 1585.3206 339.2638)" fill="#FFFFFF" font-family="'SFProDisplay-Bold'"
			font-size="30px">CARS FOR 1 HOUR</text>
		<circle fill="none" stroke="#FFFFFF" stroke-width="5" stroke-miterlimit="10" cx="1639" cy="878.48" r="13" />
		<circle fill="none" stroke="#FFFFFF" stroke-width="5" stroke-miterlimit="10" cx="1717" cy="878.48" r="13" />
		<line fill="#FFFFFF" stroke="#FFFFFF" stroke-width="5" stroke-miterlimit="10" x1="1652" y1="878.48" x2="1704"
			y2="878.48" />
		<g>
			<path fill="none" stroke="#FFFFFF" stroke-width="6" stroke-miterlimit="10" d="M1626,878.48h-16.2c-3.59,0-5.75-3.98-3.79-6.99
			l13-19.96c1.24-1.9,3.36-3.05,5.63-3.05h25.05h92.02c1.81,0,3.95,1.23,4.29,3l2,13c0.2,1.04,0.65,1.28,1.59,1.76l2.09,1.06
			c1.42,0.72,2.31,2.18,2.31,3.77v1.89c0,3.05-2.47,5.51-5.51,5.51H1730" />
		</g>
		<g>
			<path fill="none" stroke="#FFFFFF" stroke-width="6" stroke-miterlimit="10" d="M1742,848.48l-9.3-21.67
			c-0.33-0.78-0.72-1.54-1.22-2.22c-1.06-1.44-2.45-2.62-4.07-3.42c-2.78-1.37-8.31-1.69-9.42-1.69h-45.88
			c-3.27,0-6.33,1.6-8.21,4.28l-17,24.35" />
		</g>
		<line fill="none" stroke="#FFFFFF" stroke-width="6" stroke-miterlimit="10" x1="1687" y1="821.48" x2="1687"
			y2="848.48" />
		<path fill="none" stroke="#FFFFFF" stroke-width="6" stroke-miterlimit="10" d="M1762,870.48c0.94,2.02,2.73,4.98,6,7
		c8.3,5.11,21.18,1.05,25-6c2.65-4.9-0.22-9.15,3-12c3.1-2.75,6.9,0.17,12-1c10.43-2.39,17.32-19.81,16-34
		c-0.44-4.77-1.04-11.24-6-15c-7.5-5.68-21.42-2.45-26,5c-4.98,8.1,2.19,19.36-2,22c-3.4,2.15-8.53-5.02-14-3
		c-5.77,2.13-9.99,13.75-5,20c2.46,3.08,6.32,3.8,8,4" />
		<rect x="1375.32" y="767.11" fill="none" width="307.57" height="126.37" />
		<text transform="matrix(1 0 0 1 1375.318 879.8451)" fill="#FFFFFF" font-family="'SFProDisplay-Bold'"
			font-size="160px">35</text>
		<rect x="1585.32" y="754.13" fill="none" width="420.35" height="55.58" />
		<text transform="matrix(1 0 0 1 1585.3206 775.2638)" fill="#FFFFFF" font-family="'SFProDisplay-Bold'"
			font-size="30px">CARS FOR 1 HOUR</text>
		<rect x="647.99" y="371" fill="#FFFFFF" width="121.9" height="30" />
		<rect x="647.99" y="423" fill="#FFFFFF" width="121.9" height="30" />
		<rect x="640.99" y="327.53" fill="none" width="420.01" height="55.58" />
		<text transform="matrix(0.9992 0 0 1 640.9927 355.7114)" fill="#FFFFFF" font-family="'SFProDisplay-Bold'"
			font-size="40px">WHICH</text>
		<rect x="641.62" y="807" fill="#FFFFFF" width="121.9" height="30" />
		<rect x="641.62" y="859" fill="#FFFFFF" width="121.9" height="30" />
		<rect x="634.62" y="763.53" fill="none" width="420.01" height="55.58" />
		<text transform="matrix(0.9992 0 0 1 634.6183 791.7114)" fill="#FFFFFF" font-family="'SFProDisplay-Bold'"
			font-size="40px">WHICH</text>
	</g>
</svg>